<?xml version="1.0" encoding="UTF-8" standalone="no"?>
<svg xmlns="http://www.w3.org/2000/svg" version="1.1" 
     viewBox="0 0 2944.000000 1148.000000" width="2944.000000pt" height="1148.000000pt">
  <title>Centrefit Solutions Logo</title>
  <!-- Blue layer (CF mark and Centrefit text) -->
  <g transform="translate(0.000000,1148.000000) scale(0.100000,-0.100000)"
fill="#ffffff" stroke="none">
<path d="M25409 8481 c-56 -4 -94 -12 -112 -23 -14 -10 -39 -18 -55 -18 -16 0
-37 -9 -47 -20 -10 -11 -28 -20 -41 -20 -13 0 -27 -6 -31 -13 -4 -6 -28 -25
-53 -41 -51 -34 -110 -93 -149 -150 -46 -70 -80 -131 -80 -147 -1 -9 -10 -28
-21 -42 -11 -14 -20 -39 -20 -56 0 -18 -9 -49 -20 -71 -14 -27 -20 -59 -20
-102 0 -35 -7 -101 -15 -148 -8 -47 -15 -114 -15 -150 0 -38 -5 -71 -12 -78
-8 -8 -51 -12 -129 -12 -87 0 -119 -3 -128 -14 -8 -9 -11 -64 -9 -172 l3 -159
127 -3 c89 -2 129 -6 137 -16 8 -9 12 -358 13 -1197 l3 -1184 190 0 190 0 5
1195 5 1195 355 5 355 5 3 168 c2 133 0 169 -11 173 -7 2 -168 6 -358 7 l-344
2 -3 164 c-2 148 -1 168 18 203 11 21 20 54 20 72 0 20 8 40 20 51 11 10 20
25 20 34 0 16 91 121 104 121 4 0 19 9 33 20 14 11 37 20 52 20 14 0 40 9 56
20 27 18 47 20 193 20 143 0 168 -2 202 -20 22 -11 54 -20 71 -20 18 0 41 -8
52 -17 18 -17 19 -17 33 2 11 15 14 56 13 185 0 92 -4 171 -7 177 -4 5 -23 18
-42 28 -52 27 -335 40 -551 26z m406 -1401 c3 -5 -1 -10 -9 -10 -9 0 -16 5
-16 10 0 6 4 10 9 10 6 0 13 -4 16 -10z m-725 -2400 c0 -5 -5 -10 -11 -10 -5
0 -7 5 -4 10 3 6 8 10 11 10 2 0 4 -4 4 -10z"/>
<path d="M3515 8433 c-11 -2 -47 -11 -81 -19 -33 -7 -100 -14 -150 -14 -63 0
-98 -5 -119 -16 -16 -9 -64 -19 -105 -22 -45 -3 -89 -12 -110 -23 -19 -11 -55
-19 -80 -19 -28 0 -56 -8 -75 -20 -17 -11 -47 -20 -70 -20 -24 0 -50 -8 -65
-20 -14 -11 -40 -20 -58 -20 -19 0 -45 -9 -59 -20 -14 -11 -39 -20 -55 -20
-17 0 -41 -9 -55 -20 -14 -11 -37 -20 -50 -20 -14 0 -36 -9 -50 -20 -14 -11
-36 -20 -48 -20 -12 0 -30 -9 -40 -20 -10 -11 -30 -20 -45 -20 -15 0 -35 -9
-45 -20 -10 -11 -28 -20 -40 -20 -12 0 -30 -9 -40 -20 -10 -11 -28 -20 -39
-20 -12 0 -29 -9 -39 -20 -9 -11 -25 -20 -36 -20 -10 0 -24 -7 -31 -16 -8 -8
-27 -22 -44 -30 -45 -21 -73 -39 -94 -57 -10 -10 -23 -17 -29 -17 -6 0 -33
-17 -60 -39 -27 -21 -58 -41 -70 -45 -11 -4 -36 -21 -54 -39 -19 -18 -59 -49
-91 -70 -31 -20 -76 -55 -100 -78 -23 -23 -79 -72 -123 -109 -86 -74 -233
-222 -307 -310 -26 -30 -71 -82 -102 -115 -31 -33 -56 -64 -56 -68 0 -10 -43
-68 -83 -111 -15 -17 -30 -39 -33 -50 -4 -11 -24 -42 -45 -69 -22 -27 -39 -54
-39 -60 0 -6 -7 -19 -17 -29 -18 -21 -36 -49 -57 -94 -8 -17 -22 -36 -30 -44
-9 -7 -16 -20 -16 -30 0 -9 -9 -25 -20 -35 -11 -10 -20 -28 -20 -40 0 -12 -9
-30 -20 -40 -11 -10 -20 -28 -20 -40 0 -12 -9 -30 -20 -40 -11 -10 -20 -30
-20 -45 0 -15 -9 -35 -20 -45 -11 -10 -20 -28 -20 -40 0 -12 -9 -34 -20 -48
-11 -14 -20 -36 -20 -49 0 -12 -9 -36 -20 -53 -11 -16 -20 -41 -20 -55 0 -14
-9 -38 -20 -55 -11 -16 -20 -43 -20 -60 0 -16 -9 -43 -20 -60 -11 -16 -20 -45
-20 -63 0 -18 -9 -50 -20 -72 -11 -22 -20 -58 -20 -80 0 -22 -9 -58 -20 -80
-13 -25 -20 -60 -20 -97 -1 -32 -8 -76 -17 -98 -10 -25 -18 -90 -22 -176 -5
-103 -11 -142 -24 -162 -15 -23 -17 -59 -17 -308 0 -251 2 -284 17 -301 13
-15 18 -48 24 -156 4 -83 13 -153 23 -177 8 -22 15 -66 16 -98 0 -37 7 -70 20
-94 11 -21 20 -57 20 -81 0 -23 9 -60 20 -82 11 -22 20 -54 20 -72 0 -18 9
-46 20 -63 11 -16 20 -43 20 -60 0 -16 9 -43 20 -60 11 -16 20 -42 20 -56 0
-15 9 -38 20 -52 11 -14 20 -36 20 -49 0 -12 9 -36 20 -53 11 -16 20 -38 20
-48 0 -11 9 -30 20 -44 11 -14 20 -36 20 -48 0 -12 9 -30 20 -40 11 -10 20
-28 20 -40 0 -12 9 -30 20 -40 11 -10 20 -26 20 -35 0 -10 8 -28 18 -41 10
-13 23 -35 30 -49 7 -14 21 -38 32 -55 11 -16 27 -44 34 -61 8 -17 22 -36 30
-44 9 -7 16 -16 16 -21 0 -9 41 -74 62 -99 19 -21 58 -80 58 -86 0 -3 26 -38
58 -77 32 -40 63 -80 68 -89 10 -19 196 -220 280 -303 144 -143 273 -258 344
-305 12 -8 39 -30 59 -49 20 -18 49 -40 66 -48 16 -9 49 -31 72 -49 23 -19 45
-34 50 -34 5 0 34 -18 63 -40 29 -22 60 -40 67 -40 7 0 21 -9 30 -20 10 -11
25 -20 34 -20 9 0 22 -7 29 -15 6 -8 22 -17 33 -21 12 -4 34 -15 49 -25 14
-11 31 -19 38 -19 6 0 23 -9 37 -20 14 -11 32 -20 40 -20 8 0 26 -9 40 -20 14
-11 35 -20 45 -20 11 0 31 -9 45 -20 14 -11 36 -20 48 -20 12 0 32 -9 45 -20
13 -11 35 -20 49 -20 14 0 37 -9 51 -20 14 -11 38 -20 53 -20 16 0 40 -9 54
-20 15 -12 41 -20 62 -20 20 0 50 -9 66 -20 17 -11 46 -20 65 -20 19 0 53 -9
75 -20 22 -11 59 -19 81 -20 23 0 61 -9 85 -20 27 -12 66 -20 100 -20 31 0 85
-9 119 -20 41 -13 90 -20 144 -20 45 0 136 -7 201 -15 137 -17 393 -20 445 -5
19 5 104 13 190 16 99 4 168 12 190 21 19 8 69 17 110 20 41 2 96 13 122 24
26 10 65 19 88 19 22 0 58 9 80 20 22 11 53 20 70 20 17 0 48 9 70 20 22 11
52 20 67 20 15 0 42 9 58 20 17 11 42 20 56 20 15 0 38 9 52 20 14 11 36 20
49 20 12 0 37 9 53 20 17 11 39 20 51 20 12 0 31 9 44 20 13 11 33 20 45 20
12 0 30 9 40 20 10 11 28 20 40 20 12 0 30 9 40 20 10 11 28 20 40 20 12 0 30
9 40 20 10 11 26 20 35 20 9 0 25 9 35 20 10 11 25 20 35 20 9 0 25 7 35 15
37 28 96 65 104 65 4 0 16 9 26 20 10 11 22 20 26 20 4 0 27 14 51 30 24 17
66 46 93 65 28 19 55 39 61 44 5 4 20 14 32 20 12 6 22 16 22 21 0 15 -77 4
-95 -14 -14 -13 -42 -16 -183 -16 -150 0 -170 2 -197 20 -16 11 -43 20 -58 20
-16 0 -40 9 -54 20 -14 11 -31 20 -38 20 -6 0 -20 9 -30 20 -10 11 -24 20 -32
20 -30 0 -203 187 -203 219 0 4 -9 16 -20 26 -11 10 -20 28 -20 39 0 12 -9 35
-20 51 -11 17 -20 46 -20 66 0 19 -7 59 -16 89 -22 75 -4 256 36 345 38 86 56
120 78 147 13 15 19 28 13 28 -6 0 -15 -9 -21 -20 -6 -11 -15 -20 -20 -20 -5
0 -29 -14 -52 -30 -24 -17 -54 -38 -68 -48 -14 -9 -31 -22 -38 -29 -7 -7 -22
-13 -32 -13 -11 0 -24 -9 -30 -20 -6 -11 -19 -20 -29 -20 -10 0 -28 -9 -41
-20 -13 -11 -29 -20 -35 -20 -7 0 -24 -9 -38 -20 -14 -11 -33 -20 -42 -20 -9
0 -28 -9 -42 -20 -14 -11 -36 -20 -48 -20 -12 0 -30 -9 -40 -20 -11 -12 -31
-20 -49 -20 -17 0 -44 -9 -61 -20 -16 -11 -43 -20 -60 -20 -16 0 -43 -9 -60
-20 -18 -12 -47 -20 -73 -20 -24 0 -57 -8 -75 -17 -18 -10 -66 -20 -112 -24
-44 -3 -108 -13 -143 -23 -90 -25 -536 -19 -594 7 -24 11 -63 17 -110 17 -56
0 -80 5 -103 20 -18 12 -47 20 -73 20 -23 0 -60 9 -82 20 -22 11 -52 20 -67
20 -15 0 -41 9 -58 20 -16 11 -41 20 -53 20 -13 0 -35 9 -49 20 -14 11 -35 20
-45 20 -11 0 -31 9 -45 20 -14 11 -33 20 -43 20 -10 0 -29 9 -43 20 -14 11
-30 20 -36 20 -7 0 -24 8 -39 18 -47 31 -66 42 -99 57 -18 9 -33 20 -33 25 0
5 -15 17 -33 25 -48 23 -69 37 -102 69 -16 15 -55 45 -85 65 -64 42 -308 285
-353 351 -17 25 -49 68 -71 96 -39 48 -78 107 -119 178 -10 17 -26 45 -37 61
-30 48 -80 147 -80 160 0 7 -9 24 -20 38 -11 14 -20 34 -20 45 0 10 -9 31 -20
45 -11 14 -20 38 -20 54 0 15 -9 42 -20 58 -11 17 -20 46 -20 66 0 21 -8 47
-20 62 -14 17 -20 40 -20 74 0 29 -8 63 -20 86 -15 28 -20 56 -20 115 0 46 -7
100 -16 128 -25 77 -31 367 -9 464 10 41 21 118 24 170 5 59 14 106 24 125 9
17 17 49 17 73 0 23 9 59 20 79 11 21 20 51 20 68 0 16 9 44 20 60 11 17 20
41 20 55 0 14 9 39 20 55 11 17 20 38 20 48 0 11 9 30 20 44 11 14 20 36 20
48 0 12 9 30 20 40 11 10 20 26 20 35 0 9 9 25 20 35 11 10 20 25 20 34 1 18
99 173 136 215 6 6 18 25 27 41 36 69 435 475 467 475 4 0 15 9 25 20 10 11
22 20 28 20 5 0 31 18 57 40 26 22 54 40 61 40 7 0 21 7 31 17 21 19 49 36 97
58 19 9 40 23 48 31 8 8 21 14 30 14 8 0 26 9 40 20 14 11 35 20 45 20 11 0
31 9 45 20 14 11 37 20 50 20 14 0 36 9 50 20 14 11 37 20 52 20 14 0 40 9 56
20 17 11 47 20 70 20 23 0 53 9 70 20 20 14 47 20 83 20 30 0 67 7 85 17 23
12 76 19 187 25 241 14 266 15 410 7 74 -4 414 -9 756 -10 l621 -3 35 22 c20
12 44 22 55 22 11 0 30 9 43 20 13 11 31 20 41 20 21 0 239 209 239 229 0 7 9
24 20 38 11 14 20 33 20 43 0 10 9 29 20 43 11 14 20 38 20 54 0 16 10 56 21
88 17 49 20 75 16 141 -2 45 -12 94 -21 112 -9 17 -16 49 -16 70 0 26 -7 45
-20 57 -11 10 -20 28 -20 41 0 13 -8 31 -19 41 -10 10 -22 29 -26 43 -9 29
-178 200 -198 200 -8 0 -22 9 -32 20 -10 11 -28 20 -40 20 -12 0 -30 9 -40 20
-11 12 -31 20 -52 20 -19 0 -51 9 -73 20 -38 20 -58 20 -912 19 -480 -1 -882
-3 -893 -6z"/>
<path d="M26207 8383 c-4 -3 -7 -104 -7 -224 0 -198 2 -219 18 -226 9 -4 105
-7 213 -5 193 3 197 3 203 25 10 39 7 397 -4 418 -10 18 -23 19 -214 19 -111
0 -206 -3 -209 -7z"/>
<path d="M11315 8339 c-22 -10 -60 -19 -85 -19 -28 0 -57 -8 -75 -20 -16 -11
-42 -20 -56 -20 -15 0 -38 -9 -52 -20 -14 -11 -36 -20 -50 -20 -13 0 -32 -9
-42 -20 -10 -11 -26 -20 -37 -20 -10 0 -26 -9 -35 -20 -10 -11 -25 -20 -34
-20 -9 0 -24 -9 -34 -20 -10 -11 -23 -20 -28 -20 -5 0 -20 -10 -32 -22 -13
-13 -29 -27 -37 -33 -62 -46 -140 -121 -187 -180 -31 -38 -65 -80 -76 -91 -33
-35 -55 -67 -55 -80 0 -6 -7 -17 -15 -24 -8 -7 -31 -44 -50 -84 -20 -39 -39
-78 -44 -86 -38 -71 -51 -102 -51 -120 0 -12 -9 -33 -20 -47 -12 -15 -20 -41
-20 -62 0 -20 -9 -49 -20 -66 -13 -19 -20 -47 -20 -78 0 -28 -8 -62 -20 -84
-15 -28 -20 -57 -20 -114 0 -44 -7 -98 -17 -130 -16 -47 -18 -96 -18 -359 0
-260 3 -314 18 -365 9 -32 17 -91 17 -130 0 -48 7 -84 20 -114 11 -24 20 -64
20 -90 0 -29 7 -57 20 -76 11 -16 20 -45 20 -63 0 -19 9 -45 20 -59 11 -14 20
-38 20 -53 0 -15 9 -39 20 -53 11 -14 20 -34 20 -44 0 -10 7 -29 16 -42 9 -13
30 -49 46 -80 17 -31 37 -63 44 -72 8 -8 14 -19 14 -23 0 -9 155 -204 188
-236 34 -33 94 -81 123 -100 12 -8 32 -24 43 -35 12 -11 32 -26 46 -33 29 -14
55 -30 89 -54 13 -10 30 -18 38 -18 8 0 26 -9 40 -20 14 -11 37 -20 50 -20 14
0 36 -9 50 -20 15 -12 41 -20 62 -20 20 0 50 -9 66 -20 21 -14 47 -20 85 -20
31 0 81 -9 113 -20 49 -17 82 -20 252 -20 170 0 203 3 252 20 32 11 81 20 111
20 33 0 67 7 92 20 22 11 55 20 73 20 19 0 46 9 60 20 14 11 36 20 49 20 12 0
37 9 53 20 17 11 38 20 48 20 11 0 30 9 44 20 14 11 36 20 48 20 12 0 30 9 40
20 10 11 28 20 40 20 12 0 30 9 40 20 10 11 28 20 40 20 12 0 30 8 39 19 9 10
30 21 46 24 l29 6 3 263 c2 145 -1 269 -6 276 -14 20 -28 14 -77 -31 -153
-141 -267 -229 -349 -269 -14 -7 -36 -20 -49 -30 -13 -10 -30 -18 -38 -18 -8
0 -26 -9 -40 -20 -14 -11 -40 -20 -58 -20 -18 0 -42 -9 -55 -20 -16 -14 -37
-20 -69 -20 -27 0 -62 -8 -84 -20 -34 -18 -56 -20 -272 -20 -216 0 -239 2
-275 20 -22 11 -55 20 -73 20 -19 0 -46 9 -60 20 -14 11 -34 20 -45 20 -11 0
-27 6 -35 14 -8 8 -29 21 -48 29 -87 38 -315 261 -360 352 -5 11 -25 45 -44
75 -19 30 -34 62 -35 71 0 9 -9 28 -20 42 -11 14 -20 36 -20 49 0 12 -9 37
-20 53 -11 17 -20 45 -20 63 0 17 -9 49 -20 69 -13 24 -20 57 -20 90 0 29 -9
75 -20 103 -19 47 -20 74 -20 415 0 341 1 368 20 415 11 29 20 74 20 106 0 35
7 69 20 94 11 22 20 54 20 72 0 18 9 47 20 63 11 17 20 41 20 53 0 13 9 35 20
49 11 14 20 33 20 43 0 10 9 29 20 43 11 14 20 32 20 40 0 8 7 20 15 27 8 7
29 36 45 66 50 86 275 304 314 304 7 0 21 9 31 20 10 11 26 20 35 20 10 0 29
9 43 20 14 11 38 20 55 20 16 0 41 9 55 20 17 14 40 20 74 20 26 0 75 7 108
15 78 19 209 19 282 0 31 -8 81 -15 110 -15 34 0 67 -7 90 -20 21 -11 52 -20
69 -20 17 0 43 -9 57 -20 14 -11 36 -20 50 -20 13 0 34 -9 47 -20 13 -11 31
-20 40 -20 9 0 27 -9 40 -20 13 -11 31 -20 40 -20 9 0 25 -9 35 -20 10 -11 22
-20 27 -20 10 0 52 -29 118 -80 25 -20 64 -48 87 -64 23 -15 57 -42 75 -60 18
-18 40 -35 49 -38 38 -14 40 1 41 256 l0 248 -28 29 c-15 16 -35 29 -44 29 -9
0 -25 9 -35 20 -10 11 -26 20 -35 20 -10 0 -29 9 -43 20 -14 11 -33 20 -42 20
-9 0 -28 9 -42 20 -14 11 -36 20 -48 20 -12 0 -34 9 -48 20 -14 11 -36 20 -49
20 -12 0 -36 9 -53 20 -16 11 -44 20 -60 20 -17 0 -47 9 -68 20 -20 11 -56 20
-79 20 -24 0 -63 9 -87 20 -40 19 -65 20 -340 19 -269 -1 -300 -2 -336 -20z"/>
<path d="M28645 8190 c-13 -21 8 -30 71 -30 46 0 66 -4 70 -14 3 -8 6 -88 7
-178 2 -156 3 -163 22 -163 19 0 20 9 26 175 3 96 6 176 7 177 1 1 30 3 65 5
47 2 62 7 62 18 0 13 -26 15 -162 18 -102 1 -164 -1 -168 -8z"/>
<path d="M29046 8192 c-4 -7 -9 -276 -6 -374 0 -21 39 -25 41 -5 1 6 1 72 0
146 -1 128 7 169 30 155 5 -3 9 -18 9 -33 0 -16 6 -34 14 -40 8 -7 17 -24 21
-38 9 -37 43 -83 61 -83 8 0 21 15 29 34 8 19 19 37 25 41 5 3 10 17 10 30 0
15 11 32 30 45 l29 21 3 -143 3 -143 25 0 25 0 3 175 c1 96 0 185 -3 198 -7
30 -25 28 -25 -4 0 -14 -4 -23 -10 -19 -5 3 -10 15 -10 26 0 10 -3 19 -7 19
-16 0 -63 -70 -63 -94 0 -15 -8 -30 -20 -36 -14 -8 -20 -21 -20 -45 0 -23 -5
-35 -14 -35 -15 0 -49 51 -61 91 -4 13 -15 33 -25 44 -10 11 -20 31 -22 45 -2
20 -10 26 -35 28 -17 2 -34 -1 -37 -6z m46 -44 c-16 -16 -35 3 -26 26 6 16 8
16 22 2 13 -12 14 -18 4 -28z"/>
<path d="M18611 8167 c-7 -10 -12 -133 -13 -393 l-3 -379 -123 -2 c-68 -1
-130 -4 -138 -7 -12 -5 -14 -33 -12 -173 l3 -168 135 -5 135 -5 6 -850 c5
-758 7 -856 22 -905 9 -30 17 -76 17 -103 0 -28 8 -64 20 -87 11 -22 20 -48
20 -59 0 -11 19 -57 43 -102 31 -62 63 -104 125 -166 46 -46 89 -83 96 -83 7
0 25 -9 39 -20 14 -11 34 -20 45 -20 10 0 31 -9 45 -20 17 -14 40 -20 74 -20
27 0 74 -8 104 -17 67 -20 183 -20 264 1 32 9 91 16 130 16 48 1 82 7 110 20
22 11 50 19 62 20 12 0 25 4 28 10 11 19 8 371 -4 383 -8 8 -19 5 -41 -11 -16
-12 -42 -22 -57 -22 -15 0 -41 -9 -58 -20 -27 -18 -47 -20 -203 -20 -159 0
-176 2 -199 20 -14 11 -36 20 -48 20 -49 0 -195 174 -195 233 0 13 -9 53 -20
88 -20 62 -20 87 -18 889 l3 825 417 3 c385 2 418 4 425 20 5 9 6 87 3 172
l-5 155 -409 3 c-282 1 -413 6 -423 13 -10 9 -13 85 -13 383 0 276 -3 375 -12
384 -18 18 -362 17 -377 -1z m-246 -1087 c3 -5 1 -10 -4 -10 -6 0 -11 5 -11
10 0 6 2 10 4 10 3 0 8 -4 11 -10z"/>
<path d="M27371 8167 c-7 -10 -12 -133 -13 -393 l-3 -379 -122 -1 c-67 -1
-129 -4 -137 -7 -14 -6 -16 -28 -14 -174 l3 -168 135 -5 135 -5 5 -875 c5
-794 7 -880 23 -924 9 -27 17 -69 17 -92 0 -26 8 -57 20 -76 11 -18 20 -45 20
-59 0 -14 9 -34 20 -44 11 -10 20 -26 20 -36 0 -42 189 -249 228 -249 5 0 17
-9 27 -20 10 -11 30 -20 44 -20 14 0 37 -9 51 -20 16 -12 41 -20 69 -20 24 0
71 -7 105 -17 75 -20 191 -19 271 2 32 8 90 15 127 15 49 0 80 6 108 20 22 11
47 20 58 20 38 0 42 18 42 201 0 146 -3 179 -15 189 -13 11 -20 9 -38 -9 -15
-13 -36 -21 -58 -21 -19 0 -47 -9 -64 -20 -27 -18 -47 -20 -201 -20 -156 0
-174 2 -197 20 -14 11 -34 20 -45 20 -10 0 -27 9 -37 20 -10 11 -24 20 -30 20
-16 0 -85 76 -85 93 0 8 -9 22 -20 32 -11 10 -20 28 -20 41 0 13 -9 46 -20 74
-19 49 -20 75 -20 896 -1 464 2 849 5 854 4 6 164 10 420 10 367 0 414 2 419
16 10 27 7 294 -4 315 -10 18 -26 19 -421 19 -336 0 -411 2 -415 14 -3 7 -6
180 -7 385 -2 318 -4 373 -17 381 -8 5 -92 10 -186 10 -131 0 -174 -3 -183
-13z m-246 -1087 c3 -5 1 -10 -4 -10 -6 0 -11 5 -11 10 0 6 2 10 4 10 3 0 8
-4 11 -10z"/>
<path d="M14120 7455 c-30 -8 -80 -14 -110 -15 -37 0 -65 -6 -85 -20 -16 -11
-44 -20 -61 -20 -17 0 -43 -9 -57 -20 -14 -11 -34 -20 -45 -20 -11 0 -25 -7
-32 -16 -8 -8 -27 -22 -44 -30 -45 -21 -66 -36 -111 -74 -97 -84 -233 -233
-250 -274 -5 -13 -16 -30 -23 -39 -21 -25 -102 -188 -102 -206 0 -9 -9 -29
-20 -46 -11 -16 -20 -46 -20 -65 0 -19 -9 -48 -20 -65 -14 -21 -20 -47 -20
-87 0 -34 -8 -78 -20 -108 -18 -47 -20 -74 -20 -356 0 -279 2 -309 20 -361 11
-32 20 -78 20 -103 0 -26 8 -61 20 -83 11 -20 20 -49 20 -64 0 -16 9 -41 20
-58 11 -16 20 -39 20 -51 0 -12 9 -31 20 -44 11 -13 20 -29 20 -37 0 -8 8 -26
18 -41 10 -15 22 -34 27 -43 65 -110 178 -238 259 -294 92 -64 101 -70 114
-82 7 -7 21 -13 31 -13 10 0 26 -9 36 -20 10 -11 28 -20 39 -20 12 0 35 -9 51
-20 17 -11 44 -20 60 -20 17 0 44 -9 60 -20 21 -14 47 -20 85 -20 31 0 82 -9
115 -21 53 -18 77 -20 231 -17 127 2 175 7 188 17 9 8 49 16 89 19 45 3 83 11
103 23 17 11 49 19 71 19 25 0 50 8 66 20 14 11 39 20 57 20 18 0 43 9 57 20
14 11 37 20 50 20 14 0 36 9 50 20 14 11 37 20 50 20 13 0 40 12 59 28 l34 27
0 222 c0 140 -4 224 -10 228 -6 4 -29 -8 -51 -26 -55 -43 -108 -79 -118 -79
-4 0 -16 -9 -26 -20 -10 -11 -26 -20 -35 -20 -9 0 -25 -9 -35 -20 -10 -11 -28
-20 -40 -20 -12 0 -30 -9 -40 -20 -10 -11 -29 -20 -42 -20 -14 0 -36 -9 -50
-20 -14 -11 -39 -20 -54 -20 -16 0 -46 -9 -66 -20 -24 -13 -57 -20 -91 -20
-29 0 -91 -7 -136 -16 -76 -15 -88 -15 -154 0 -39 9 -99 16 -132 16 -47 0 -68
5 -87 20 -14 11 -39 20 -55 20 -17 0 -41 9 -55 20 -14 11 -32 20 -40 20 -8 0
-28 10 -43 23 -15 12 -37 29 -50 37 -47 31 -97 76 -123 110 -88 113 -107 141
-107 153 0 8 -9 26 -20 40 -11 14 -20 36 -20 49 0 12 -9 34 -20 48 -11 15 -20
41 -20 63 0 21 -9 57 -19 81 -16 33 -20 68 -22 169 -1 71 2 132 7 137 6 6 353
11 899 12 l890 3 3 283 c2 266 1 286 -18 329 -11 26 -20 67 -20 97 0 34 -7 61
-20 81 -11 17 -20 41 -20 55 0 14 -9 39 -20 55 -11 17 -20 39 -20 51 0 11 -9
29 -20 39 -11 10 -20 24 -20 31 0 19 -109 172 -156 218 -27 27 -142 116 -150
116 -3 0 -17 9 -31 20 -14 11 -32 20 -40 20 -8 0 -26 9 -40 20 -14 11 -37 20
-52 20 -14 0 -39 9 -56 20 -20 13 -47 20 -80 20 -27 0 -77 7 -110 15 -75 18
-212 18 -285 0z m267 -355 c32 -11 70 -20 86 -20 16 0 40 -9 54 -20 14 -11 34
-20 44 -20 10 0 21 -4 24 -10 3 -5 30 -26 60 -45 32 -22 68 -58 90 -90 19 -30
40 -57 45 -60 6 -3 10 -14 10 -24 0 -10 9 -30 20 -44 11 -14 20 -36 20 -49 0
-12 9 -38 20 -56 14 -22 20 -51 20 -90 1 -31 7 -75 15 -97 19 -53 29 -128 21
-160 l-6 -25 -713 2 -712 3 -3 77 c-2 62 1 85 18 117 11 22 20 55 20 73 0 18
9 47 20 63 11 17 20 40 20 51 0 12 7 27 14 34 8 6 25 33 38 58 23 50 185 219
228 240 14 6 32 16 40 20 65 37 103 52 127 52 16 0 53 9 83 20 77 27 220 27
297 0z m863 -1100 c0 -5 -4 -10 -10 -10 -5 0 -10 5 -10 10 0 6 5 10 10 10 6 0
10 -4 10 -10z m-40 -789 c0 -6 -4 -13 -10 -16 -5 -3 -10 1 -10 9 0 9 5 16 10
16 6 0 10 -4 10 -9z"/>
<path d="M16955 7454 c-27 -7 -67 -14 -88 -14 -21 0 -55 -9 -77 -20 -22 -11
-50 -20 -63 -20 -13 0 -32 -9 -42 -20 -10 -11 -28 -20 -40 -20 -12 0 -30 -9
-40 -20 -10 -11 -26 -20 -36 -20 -9 0 -39 -17 -66 -39 -27 -21 -58 -41 -69
-45 -11 -3 -35 -20 -54 -38 -102 -94 -133 -119 -148 -116 -15 3 -18 24 -22
153 l-5 150 -165 5 c-91 3 -173 1 -183 -3 -16 -7 -17 -80 -15 -1375 l3 -1367
174 -3 c96 -1 178 1 183 6 5 5 9 466 11 1026 l2 1017 41 37 c125 113 152 135
180 148 17 7 36 20 44 28 7 9 17 16 22 16 5 0 21 9 35 20 14 11 32 20 40 20 8
0 26 9 40 20 14 11 37 20 51 20 13 0 39 8 56 19 26 16 146 33 226 33 80 0 200
-17 226 -33 17 -11 38 -19 46 -19 8 0 23 -9 33 -20 10 -11 23 -20 29 -20 14 0
76 -70 76 -85 0 -7 9 -20 20 -30 11 -10 20 -28 20 -39 0 -12 9 -34 20 -51 13
-19 20 -47 20 -78 0 -26 8 -64 18 -85 16 -34 17 -110 22 -992 l5 -955 195 0
195 0 0 990 c0 918 -1 993 -17 1038 -10 26 -18 76 -18 110 0 45 -6 70 -20 92
-11 17 -20 46 -20 66 0 23 -7 42 -20 54 -11 10 -20 31 -20 47 0 16 -6 31 -15
34 -8 3 -19 22 -26 42 -13 40 -207 242 -232 242 -8 0 -26 9 -40 20 -14 11 -33
20 -44 20 -10 0 -31 9 -48 20 -16 11 -46 20 -65 20 -19 0 -60 7 -90 15 -68 18
-178 18 -245 -1z m-1070 -2774 c3 -5 1 -10 -4 -10 -6 0 -11 5 -11 10 0 6 2 10
4 10 3 0 8 -4 11 -10z"/>
<path d="M22995 7455 c-27 -7 -74 -14 -103 -14 -31 -1 -69 -9 -92 -21 -22 -11
-50 -20 -63 -20 -13 0 -36 -9 -50 -20 -14 -11 -34 -20 -45 -20 -10 0 -27 -9
-37 -20 -10 -11 -26 -20 -36 -20 -10 0 -24 -6 -31 -13 -7 -7 -24 -19 -38 -28
-71 -46 -300 -287 -300 -317 0 -5 -9 -20 -19 -34 -29 -36 -101 -176 -101 -196
0 -9 -9 -30 -20 -47 -11 -16 -20 -43 -20 -58 0 -15 -9 -45 -20 -67 -11 -22
-20 -57 -20 -78 0 -22 -9 -68 -20 -103 -19 -58 -20 -89 -20 -384 0 -295 1
-326 20 -384 11 -35 20 -81 20 -102 0 -22 9 -56 20 -76 11 -21 20 -49 20 -63
0 -14 9 -38 20 -55 11 -16 20 -39 20 -50 0 -11 8 -32 17 -45 10 -14 31 -50 48
-81 61 -114 114 -178 259 -315 6 -6 22 -17 36 -24 13 -7 29 -17 34 -21 6 -5
25 -20 42 -34 18 -14 41 -25 51 -25 11 0 28 -9 38 -20 10 -11 28 -20 40 -20
12 0 34 -9 48 -20 14 -11 39 -20 56 -20 17 0 45 -9 63 -20 22 -13 51 -20 84
-20 28 0 80 -9 114 -20 91 -29 346 -29 420 0 28 11 74 20 103 20 33 0 66 7 90
20 20 11 52 20 69 20 18 0 47 9 63 20 17 11 44 20 60 20 17 0 44 9 60 20 17
11 41 20 53 20 13 0 35 9 49 20 14 11 35 20 46 20 12 0 38 12 59 26 l38 27 0
228 c0 166 -3 229 -11 229 -7 0 -31 -16 -55 -35 -23 -19 -47 -35 -52 -35 -5 0
-17 -9 -27 -20 -10 -11 -23 -20 -30 -20 -7 0 -20 -9 -30 -20 -10 -11 -26 -20
-35 -20 -9 0 -25 -9 -35 -20 -10 -11 -28 -20 -40 -20 -12 0 -30 -9 -40 -20
-10 -11 -29 -20 -42 -20 -14 0 -36 -9 -50 -20 -14 -11 -41 -20 -60 -20 -18 0
-46 -8 -60 -17 -17 -11 -57 -20 -108 -25 -44 -3 -109 -11 -144 -17 -52 -10
-76 -9 -132 4 -37 8 -96 15 -131 15 -46 0 -71 5 -93 20 -16 11 -42 20 -56 20
-14 0 -36 9 -49 20 -13 11 -31 20 -40 20 -9 0 -25 9 -35 20 -10 11 -22 20 -27
20 -34 0 -218 184 -218 217 0 5 -9 16 -20 26 -11 9 -20 25 -20 35 0 11 -9 27
-20 37 -11 10 -20 29 -20 42 0 14 -9 36 -20 50 -12 15 -20 41 -20 62 0 20 -7
50 -16 66 -17 31 -39 292 -28 327 5 17 59 18 902 20 l897 3 0 280 c0 244 -2
286 -17 323 -10 23 -18 64 -18 90 0 29 -8 59 -20 80 -11 18 -20 45 -20 60 0
15 -9 41 -20 57 -11 17 -20 40 -20 52 0 12 -5 25 -11 29 -6 3 -19 25 -30 48
-38 80 -42 84 -166 209 -105 106 -128 127 -137 127 -5 0 -19 9 -33 20 -14 11
-32 20 -40 20 -8 0 -26 9 -40 20 -14 11 -38 20 -54 20 -16 0 -43 9 -61 20 -21
13 -51 20 -83 20 -27 0 -75 7 -105 15 -66 18 -215 18 -285 0z m287 -359 c21
-9 51 -16 69 -16 17 0 42 -9 56 -20 14 -11 32 -20 40 -20 25 0 143 -103 179
-157 19 -29 39 -55 44 -58 6 -3 10 -14 10 -24 0 -10 9 -30 20 -44 11 -14 20
-35 20 -46 0 -12 9 -39 20 -61 11 -22 20 -59 20 -85 0 -25 7 -77 16 -115 8
-37 14 -88 12 -112 l-3 -43 -710 0 -710 0 -3 87 c-2 72 1 94 18 127 11 22 20
53 20 69 0 16 9 41 20 55 11 14 20 36 20 49 0 13 9 31 20 41 11 9 20 24 20 33
0 19 65 98 130 159 24 22 53 50 65 63 12 12 26 22 30 22 4 0 18 9 32 20 14 11
33 20 43 20 10 0 29 9 43 20 14 11 38 20 54 20 15 0 55 9 88 20 49 17 80 19
170 16 72 -2 123 -9 147 -20z m848 -1096 c0 -5 -4 -10 -10 -10 -5 0 -10 5 -10
10 0 6 5 10 10 10 6 0 10 -4 10 -10z m-40 -790 c0 -5 -4 -10 -10 -10 -5 0 -10
5 -10 10 0 6 5 10 10 10 6 0 10 -4 10 -10z"/>
<path d="M26395 7390 l-170 -5 -5 -1360 c-3 -788 -1 -1365 4 -1373 7 -9 52
-12 190 -10 l181 3 3 1367 c2 1295 1 1368 -15 1375 -10 4 -94 6 -188 3z m175
-2710 c0 -5 -5 -10 -11 -10 -5 0 -7 5 -4 10 3 6 8 10 11 10 2 0 4 -4 4 -10z"/>
<path d="M20285 7368 c-3 -13 -4 -630 -3 -1373 l3 -1350 195 0 195 0 3 990 3
990 59 45 c33 25 84 64 114 88 30 23 61 42 69 42 8 0 22 9 32 20 10 11 24 20
30 20 7 0 24 9 38 20 14 11 36 20 50 20 13 0 32 9 42 20 12 13 31 20 57 20 21
0 55 9 75 20 33 18 57 20 196 20 138 0 165 -3 206 -21 33 -14 64 -19 97 -17
l49 3 0 214 0 214 -60 15 c-96 22 -278 27 -326 8 -22 -9 -58 -16 -82 -16 -25
0 -54 -8 -72 -20 -16 -11 -42 -20 -56 -20 -14 0 -34 -9 -44 -20 -10 -11 -28
-20 -40 -20 -12 0 -30 -9 -40 -20 -10 -11 -26 -20 -35 -20 -9 0 -25 -9 -35
-20 -10 -11 -22 -20 -27 -20 -12 0 -54 -30 -170 -122 -54 -43 -105 -78 -113
-78 -13 0 -15 27 -15 179 0 99 -3 186 -6 195 -5 14 -32 16 -195 16 -187 0
-189 0 -194 -22z m1485 -48 c0 -5 -2 -10 -4 -10 -3 0 -8 5 -11 10 -3 6 -1 10
4 10 6 0 11 -4 11 -10z m0 -360 c0 -5 -5 -10 -11 -10 -5 0 -7 5 -4 10 3 6 8
10 11 10 2 0 4 -4 4 -10z"/>
<path d="M6180 1689 c0 -5 5 -7 10 -4 6 3 10 8 10 11 0 2 -4 4 -10 4 -5 0 -10
-5 -10 -11z"/>
</g>
  <!-- Green layer (f and Solutions text) -->
  <g transform="translate(0.000000,1148.000000) scale(0.100000,-0.100000)"
fill="#ffffff" stroke="none">
<path d="M8472 11463 c-18 -13 -58 -18 -157 -23 -87 -4 -139 -11 -149 -19 -9
-7 -46 -15 -83 -18 -38 -3 -86 -14 -109 -24 -22 -10 -58 -19 -80 -19 -23 0
-49 -8 -64 -20 -14 -11 -41 -20 -61 -20 -21 0 -47 -9 -62 -20 -14 -11 -36 -20
-49 -20 -12 0 -36 -9 -53 -20 -16 -11 -38 -20 -48 -20 -11 0 -30 -9 -44 -20
-14 -11 -34 -20 -45 -20 -10 0 -30 -11 -44 -25 -14 -14 -30 -23 -35 -20 -5 4
-21 -3 -35 -14 -15 -12 -35 -21 -45 -21 -10 0 -22 -6 -26 -14 -4 -8 -25 -21
-46 -30 -33 -13 -37 -19 -32 -38 12 -38 11 -42 -12 -46 -25 -4 -30 7 -11 26
22 22 -2 26 -25 4 -13 -12 -28 -22 -34 -22 -24 0 -43 -30 -33 -54 10 -27 5
-36 -22 -36 -11 0 -18 -7 -18 -20 0 -13 -7 -20 -20 -20 -23 0 -26 10 -8 28 6
6 9 14 5 18 -14 15 -277 -227 -277 -256 0 -5 5 -12 10 -15 18 -11 11 -47 -10
-52 -11 -3 -20 -14 -20 -24 0 -11 -7 -19 -15 -19 -16 0 -18 4 -9 37 4 12 12
19 19 17 14 -6 32 33 21 43 -3 4 -7 4 -9 2 -2 -2 -23 -29 -48 -59 -54 -67 -83
-109 -92 -132 -3 -10 -11 -18 -16 -18 -5 0 -13 -12 -19 -27 -5 -16 -26 -53
-46 -83 -20 -30 -36 -58 -36 -63 0 -5 -9 -20 -20 -34 -11 -14 -20 -35 -20 -45
0 -11 -9 -31 -20 -45 -11 -14 -20 -36 -20 -48 0 -12 -9 -34 -20 -48 -11 -14
-20 -38 -20 -54 0 -15 -9 -41 -20 -58 -11 -16 -20 -46 -20 -65 0 -19 -9 -48
-20 -65 -12 -19 -20 -47 -20 -75 0 -25 -9 -65 -20 -89 -20 -42 -20 -69 -20
-1145 -1 -1468 -16 -3483 -30 -3886 -10 -276 -15 -333 -31 -378 -10 -30 -19
-75 -19 -101 0 -27 -8 -62 -20 -84 -11 -20 -20 -54 -20 -74 0 -21 -9 -51 -20
-68 -11 -16 -20 -43 -20 -58 0 -16 -9 -40 -20 -54 -11 -14 -20 -34 -20 -45 0
-10 -9 -36 -19 -56 -11 -20 -24 -48 -30 -62 -6 -14 -15 -32 -20 -40 -5 -8 -14
-26 -20 -40 -17 -39 -71 -132 -92 -159 -11 -13 -19 -28 -19 -33 0 -5 -18 -31
-40 -59 -22 -28 -40 -56 -40 -62 0 -7 -17 -30 -37 -52 -21 -22 -67 -76 -103
-120 -77 -93 -94 -111 -180 -185 -34 -30 -69 -69 -77 -87 -7 -18 -18 -33 -23
-33 -6 0 -10 -7 -10 -15 0 -8 -9 -20 -20 -27 -11 -7 -20 -18 -20 -24 0 -6 -9
-22 -19 -36 -11 -13 -23 -38 -27 -54 -4 -16 -14 -40 -23 -54 -24 -36 -24 -394
0 -431 9 -13 20 -39 23 -56 4 -17 14 -37 22 -44 8 -6 14 -17 14 -24 0 -7 11
-24 25 -39 14 -15 25 -33 25 -40 0 -14 137 -146 152 -146 6 0 23 -11 40 -25
16 -14 37 -25 47 -25 9 0 22 -5 29 -12 44 -44 358 -76 426 -44 17 8 49 18 71
21 22 4 48 16 58 27 14 14 27 17 47 13 23 -5 31 -2 40 14 6 12 19 21 28 21 18
0 120 80 135 106 4 7 3 15 -3 19 -16 10 -12 45 5 45 12 0 14 -7 9 -26 -5 -20
-3 -25 7 -22 10 4 13 18 11 47 -3 36 -1 41 17 41 14 0 21 6 21 20 0 11 7 20
15 20 8 0 15 -4 15 -9 0 -20 -13 -41 -25 -41 -13 0 -29 -29 -21 -38 3 -2 19 9
36 27 27 26 30 35 24 66 -5 29 -3 35 11 35 13 0 16 -6 11 -25 -4 -14 -3 -25 0
-25 11 0 98 95 187 205 44 55 90 109 101 121 29 30 56 67 56 77 0 4 19 32 43
61 38 49 82 114 115 173 7 12 28 46 47 75 19 29 35 58 35 64 0 6 9 19 20 29
11 10 20 26 20 35 0 9 9 25 20 35 11 10 20 28 20 40 0 12 9 30 20 40 11 10 20
28 20 40 0 12 9 32 20 45 11 13 20 33 20 45 0 12 9 30 20 40 11 10 20 30 20
44 0 14 9 37 20 51 11 14 20 36 20 50 0 14 9 39 20 55 11 17 20 41 20 55 0 14
9 39 20 55 11 17 20 46 20 65 0 19 9 49 20 65 11 17 20 47 20 68 0 21 9 55 20
77 12 23 20 60 20 87 1 26 9 66 20 88 13 27 19 62 20 108 0 44 7 87 22 125
l21 57 5 1417 c3 1064 7 1420 16 1427 7 6 286 11 731 13 l720 3 36 23 c20 12
44 22 54 22 9 0 29 9 43 20 15 12 50 38 78 60 46 34 114 118 114 139 0 4 9 16
20 26 11 10 20 27 20 37 0 11 9 31 20 45 11 14 20 40 20 58 0 18 9 52 20 76
17 37 20 66 20 189 0 123 -3 152 -20 189 -11 24 -20 56 -20 73 0 25 -16 65
-52 128 -5 8 -15 29 -23 45 -19 38 -142 162 -151 152 -9 -8 53 -72 70 -72 6 0
12 -10 14 -22 2 -13 10 -23 18 -23 15 0 30 -43 19 -60 -10 -16 -25 -1 -25 26
0 15 -6 24 -16 24 -9 0 -18 9 -21 20 -3 11 -11 20 -19 20 -7 0 -18 9 -24 20
-6 11 -18 20 -26 20 -12 0 -15 10 -12 42 3 39 1 42 -28 50 -17 4 -37 15 -44
23 -7 8 -27 15 -44 15 -17 0 -43 8 -56 18 -23 16 -80 17 -740 22 l-715 5 -3
509 c-2 494 -2 511 18 548 11 21 20 49 20 62 0 12 9 31 20 41 11 10 20 25 20
32 0 43 241 283 284 283 9 0 24 9 33 20 10 11 29 20 44 20 14 0 34 9 44 20 11
12 31 20 49 20 17 0 45 9 61 20 19 12 47 20 75 20 25 0 59 7 75 16 38 21 324
38 505 30 107 -4 133 -2 180 14 30 11 67 19 81 20 15 0 38 9 52 20 14 11 32
20 40 20 22 0 32 19 28 57 -2 28 1 33 18 33 14 0 21 6 21 20 0 13 7 20 19 20
12 0 21 8 23 20 4 29 23 24 21 -6 -1 -13 2 -24 6 -24 11 0 57 69 65 97 4 11
13 24 21 27 8 3 15 17 15 32 0 14 9 37 20 51 12 15 20 41 20 63 0 21 9 57 20
81 16 37 20 66 20 174 0 111 -3 136 -20 168 -11 20 -20 50 -20 65 0 16 -9 37
-20 47 -11 10 -20 25 -20 33 0 17 -67 99 -130 159 -45 42 -60 51 -60 34 0 -13
26 -32 33 -24 4 3 7 0 7 -8 0 -16 58 -74 73 -74 6 0 12 -12 14 -27 3 -20 -1
-28 -12 -28 -8 0 -15 8 -15 19 0 10 -9 21 -20 24 -11 3 -20 12 -20 21 0 9 -7
16 -15 16 -8 0 -19 9 -25 20 -6 11 -18 20 -27 20 -12 0 -14 7 -10 34 6 36 -6
56 -33 56 -9 0 -25 9 -35 20 -10 11 -26 20 -37 20 -10 0 -35 9 -55 20 -24 13
-57 20 -89 20 -36 0 -59 6 -77 20 -23 18 -40 20 -219 19 -162 0 -197 -3 -216
-16z m28 -50 c49 -6 52 -8 25 -14 -47 -10 -315 -10 -315 0 0 5 8 12 18 14 28
8 213 7 272 0z m524 1 c9 -3 16 -10 16 -15 0 -11 -134 -12 -170 -2 l-25 7 30
7 c40 9 129 11 149 3z m-877 -40 c42 -12 12 -24 -58 -24 -64 0 -80 6 -62 23 8
9 90 9 120 1z m993 -9 c0 -10 -11 -15 -35 -15 -54 0 -43 27 13 29 13 1 22 -5
22 -14z m-1183 -31 c13 -4 20 -10 17 -15 -7 -12 -104 -12 -104 0 0 18 46 26
87 15z m1254 -9 c0 -5 -9 -11 -21 -13 -20 -3 -27 8 -13 22 10 9 34 3 34 -9z
m-1397 -31 c31 -12 16 -24 -29 -24 -42 0 -54 7 -38 23 8 9 46 9 67 1z m-106
-51 c2 -9 -8 -13 -32 -13 -34 0 -44 8 -29 24 11 11 56 2 61 -11z m-124 -29
c26 -10 18 -24 -14 -24 -29 0 -38 9 -23 23 8 9 17 9 37 1z m-76 -51 c2 -9 -7
-13 -27 -13 -30 0 -39 9 -24 24 11 10 46 3 51 -11z m-88 -38 c0 -9 -9 -15 -25
-15 -24 0 -32 10 -18 23 12 13 43 7 43 -8z m1995 -15 c0 -13 -6 -25 -12 -27
-9 -3 -13 6 -13 27 0 21 4 30 13 28 6 -3 12 -15 12 -28z m-2067 -27 c2 -8 -6
-13 -22 -13 -25 0 -33 10 -19 24 10 10 36 3 41 -11z m-70 -41 c2 -7 -6 -12
-17 -12 -21 0 -27 11 -14 24 9 9 26 2 31 -12z m2177 -22 c0 -18 -6 -35 -12
-37 -9 -3 -13 8 -13 37 0 29 4 40 13 38 6 -3 12 -20 12 -38z m-2300 -60 c-3
-5 -13 -10 -21 -10 -8 0 -14 5 -14 10 0 6 9 10 21 10 11 0 17 -4 14 -10z
m2339 -71 c8 -40 8 -93 0 -141 -12 -72 -24 -38 -24 67 0 102 11 137 24 74z
m-2491 -46 c-3 -7 -11 -13 -19 -13 -17 0 -17 5 -2 30 13 21 30 8 21 -17z m-53
-37 c0 -3 -4 -8 -10 -11 -5 -3 -10 -1 -10 4 0 6 5 11 10 11 6 0 10 -2 10 -4z
m-100 -96 c0 -5 -5 -10 -11 -10 -5 0 -7 5 -4 10 3 6 8 10 11 10 2 0 4 -4 4
-10z m-40 -50 c0 -11 -7 -20 -15 -20 -17 0 -18 2 -9 24 9 23 24 20 24 -4z
m2650 -86 c0 -16 -7 -39 -15 -50 -13 -17 -14 -14 -15 37 0 31 3 59 7 62 10 11
23 -15 23 -49z m-2770 -58 c0 -8 -4 -17 -9 -20 -10 -7 -23 19 -14 28 11 11 23
6 23 -8z m-40 -56 c0 -19 -17 -36 -27 -26 -3 3 -2 17 1 31 7 28 26 25 26 -5z
m2768 -11 c-5 -35 -28 -36 -28 -1 0 16 3 32 7 36 11 11 25 -10 21 -35z m-2808
-53 c0 -14 -4 -27 -9 -31 -12 -7 -25 31 -16 45 11 18 25 10 25 -14z m2770 -5
c0 -20 -13 -41 -21 -35 -15 9 -10 44 6 44 8 0 15 -4 15 -9z m-2810 -56 c0 -26
-15 -41 -25 -26 -8 14 5 62 16 55 5 -3 9 -16 9 -29z m-40 -81 c0 -15 -6 -24
-15 -24 -16 0 -19 17 -9 44 9 22 24 10 24 -20z m-40 -85 c0 -29 -13 -39 -25
-18 -10 15 4 61 15 54 6 -3 10 -19 10 -36z m2720 32 c0 -12 -21 -19 -37 -13
-22 8 -14 22 12 22 14 0 25 -4 25 -9z m-70 -40 c0 -6 -5 -13 -11 -16 -15 -10
-100 5 -94 16 8 12 105 12 105 0z m-2690 -76 c0 -39 -16 -55 -25 -26 -7 24 4
73 16 65 5 -3 9 -20 9 -39z m2150 36 c0 -12 -178 -25 -219 -16 -17 4 -29 11
-25 16 7 12 244 12 244 0z m-290 -40 c0 -12 -26 -21 -60 -21 -37 0 -61 10 -54
21 7 12 114 12 114 0z m-150 -40 c0 -14 -37 -23 -60 -16 -11 4 -18 11 -15 16
8 12 75 12 75 0z m-1750 -61 c0 -40 -15 -54 -26 -25 -8 20 4 65 16 65 6 0 10
-18 10 -40z m1650 21 c0 -16 -19 -23 -40 -16 -30 10 -24 25 10 25 17 0 30 -4
30 -9z m-80 -40 c0 -6 -5 -13 -10 -16 -14 -9 -52 4 -45 16 8 12 55 12 55 0z
m-70 -38 c-1 -11 -26 -43 -34 -43 -3 0 -6 11 -6 25 0 18 5 25 20 25 11 0 20
-3 20 -7z m-1540 -64 c0 -36 -4 -49 -12 -47 -16 5 -22 41 -14 74 11 42 26 26
26 -27z m1480 23 c0 -13 -12 -22 -22 -16 -10 6 -1 24 13 24 5 0 9 -4 9 -8z
m-1520 -177 c0 -67 -14 -87 -25 -36 -7 34 3 101 16 101 5 0 9 -29 9 -65z
m1366 3 c-3 -13 -6 -27 -6 -33 0 -5 -5 -3 -10 5 -15 23 -12 50 6 50 12 0 15
-6 10 -22z m-38 -50 c-5 -32 -28 -35 -28 -4 0 17 5 26 16 26 10 0 14 -7 12
-22z m-40 -89 c-5 -35 -28 -36 -28 -1 0 16 3 32 7 36 11 11 25 -10 21 -35z
m-1333 -4177 c-3 -3 -8 -2 -12 2 -11 11 -9 4168 2 4191 7 13 11 -673 13 -2084
1 -1157 0 -2107 -3 -2109z m1293 3565 c-2 -397 -6 -511 -15 -515 -10 -3 -13
107 -13 526 0 291 3 532 7 536 19 19 23 -76 21 -547z m1427 -557 c4 -7 -232
-10 -699 -10 -464 0 -706 3 -706 10 0 7 240 10 699 10 456 0 702 -3 706 -10z
m133 -37 c2 -9 -9 -13 -37 -13 -44 0 -64 16 -29 23 36 7 61 3 66 -10z m80 -40
c2 -8 -6 -13 -22 -13 -25 0 -33 10 -19 24 10 10 36 3 41 -11z m200 -246 c-2
-12 -7 -22 -13 -22 -12 0 -19 41 -10 63 6 16 7 16 16 -1 6 -10 9 -28 7 -40z
m36 -63 c13 -34 3 -94 -15 -94 -5 0 -9 25 -9 55 0 53 11 72 24 39z m41 -284
c0 -66 -4 -103 -12 -112 -10 -10 -13 13 -13 112 0 99 2 121 13 111 8 -8 12
-45 12 -111z m-39 -215 c7 -30 -2 -75 -16 -75 -6 0 -10 23 -10 50 0 53 15 67
26 25z m-40 -151 c-3 -8 -10 -14 -16 -14 -11 0 -14 43 -3 54 10 10 26 -23 19
-40z m-36 -48 c0 -24 -12 -46 -21 -40 -15 9 -10 54 6 54 8 0 15 -6 15 -14z
m-50 -71 c0 -8 -4 -15 -10 -15 -5 0 -10 7 -10 15 0 8 5 15 10 15 6 0 10 -7 10
-15z m-42 -46 c-2 -6 -8 -10 -13 -10 -5 0 -11 4 -13 10 -2 6 4 11 13 11 9 0
15 -5 13 -11z m-48 -38 c0 -12 -29 -23 -41 -15 -5 3 -7 10 -4 15 8 12 45 12
45 0z m-60 -40 c0 -16 -18 -22 -45 -15 -37 9 -31 24 10 24 19 0 35 -4 35 -9z
m-100 -40 c0 -5 -8 -12 -17 -15 -14 -4 -1250 -1 -1415 3 -16 1 -28 6 -28 11 0
7 250 10 730 10 445 0 730 -4 730 -9z m-1509 -1474 c2 -1062 -1 -1411 -9
-1419 -9 -9 -12 325 -12 1403 0 779 3 1419 7 1422 3 4 8 6 9 4 1 -1 4 -636 5
-1410z m-1326 -1376 c-3 -3 -11 1 -16 9 -10 16 -2 237 10 255 3 6 7 -50 9
-124 1 -73 0 -136 -3 -140z m-44 -184 c-15 -15 -25 35 -16 80 12 63 20 61 23
-6 2 -35 -1 -68 -7 -74z m1334 39 c4 -19 4 -58 1 -87 -3 -30 -5 -57 -6 -61 0
-5 -4 -8 -10 -8 -6 0 -10 38 -10 95 0 95 13 126 25 61z m-1365 -126 c0 -51
-13 -67 -25 -30 -8 25 3 80 16 80 5 0 9 -22 9 -50z m1329 -135 c1 -39 -9 -75
-20 -75 -11 0 -12 123 -2 134 10 9 21 -22 22 -59z m-1369 15 c0 -38 -12 -52
-25 -30 -9 14 4 70 16 70 5 0 9 -18 9 -40z m-40 -111 c0 -19 -5 -29 -15 -29
-15 0 -20 26 -9 54 9 24 24 9 24 -25z m1366 -103 c-3 -14 -11 -26 -16 -26 -12
0 -14 93 -2 104 11 12 25 -49 18 -78z m-1406 13 c0 -29 -13 -39 -25 -18 -10
15 4 61 15 54 6 -3 10 -19 10 -36z m-40 -78 c0 -17 -4 -32 -9 -35 -12 -8 -23
23 -16 45 10 29 25 22 25 -10z m1405 -22 c8 -25 -2 -69 -15 -69 -6 0 -10 20
-10 45 0 47 14 60 25 24z m-1445 -54 c0 -34 -12 -46 -25 -24 -9 14 3 59 15 59
6 0 10 -16 10 -35z m-40 -71 c0 -15 -6 -24 -15 -24 -17 0 -18 4 -9 37 8 29 24
20 24 -13z m1445 5 c8 -25 -2 -69 -15 -69 -6 0 -10 20 -10 45 0 47 14 60 25
24z m-1485 -79 c0 -21 -15 -27 -25 -10 -7 12 2 30 16 30 5 0 9 -9 9 -20z m-40
-45 c0 -16 -6 -25 -15 -25 -16 0 -19 9 -9 34 9 25 24 19 24 -9z m1485 15 c9
-15 -5 -71 -16 -64 -12 7 -12 74 0 74 6 0 13 -5 16 -10z m-1525 -90 c0 -11 -4
-20 -10 -20 -5 0 -10 9 -10 20 0 11 5 20 10 20 6 0 10 -9 10 -20z m1485 -11
c9 -14 -3 -59 -15 -59 -6 0 -10 16 -10 35 0 34 12 46 25 24z m-1525 -29 c0
-23 -4 -30 -20 -30 -13 0 -20 -7 -20 -20 0 -12 -7 -20 -16 -20 -11 0 -14 5
-10 16 3 9 6 20 6 25 0 5 7 9 15 9 8 0 15 8 15 18 0 10 3 22 7 25 14 15 23 6
23 -23z m1487 -104 c-4 -9 -11 -16 -17 -16 -11 0 -14 53 -3 64 11 10 27 -30
20 -48z m-1572 5 c3 -5 1 -12 -5 -16 -5 -3 -10 1 -10 9 0 18 6 21 15 7z m1530
-71 c0 -13 -6 -25 -12 -27 -9 -3 -13 6 -13 27 0 21 4 30 13 28 6 -3 12 -15 12
-28z m-1622 -47 c-13 -9 -23 -21 -23 -29 0 -7 -9 -15 -19 -19 -11 -3 -23 -15
-26 -26 -4 -10 -12 -19 -19 -19 -8 0 -20 -10 -29 -22 -8 -13 -18 -20 -21 -17
-4 4 16 30 44 60 27 29 50 57 50 61 0 5 4 6 10 3 5 -3 15 5 22 20 8 19 14 23
22 14 8 -8 5 -15 -11 -26z m1585 -39 c-5 -28 -28 -29 -28 -1 0 13 3 27 7 31
10 10 25 -10 21 -30z m-42 -80 c-3 -8 -10 -14 -16 -14 -11 0 -14 43 -3 54 10
10 26 -23 19 -40z m-38 -56 c-5 -32 -28 -35 -28 -4 0 17 5 26 16 26 10 0 14
-7 12 -22z m-1690 -8 c-14 -22 -24 -19 -15 5 4 8 11 15 17 15 6 0 6 -7 -2 -20z
m-42 -55 c-7 -18 -26 -20 -26 -2 0 18 24 41 28 27 2 -6 1 -17 -2 -25z m1689 4
c10 -15 -4 -61 -15 -54 -13 8 -13 65 -1 65 6 0 13 -5 16 -11z m-1725 -44 c0
-16 -6 -25 -15 -25 -28 0 -18 40 13 49 1 1 2 -10 2 -24z m1684 -21 c7 -18 0
-34 -15 -34 -5 0 -9 11 -9 25 0 28 15 34 24 9z m-1724 -64 c0 -31 -16 -41 -26
-15 -8 19 2 45 16 45 5 0 10 -13 10 -30z m1688 -15 c-2 -14 -7 -26 -13 -26 -5
0 -11 12 -13 26 -2 18 1 25 13 25 12 0 15 -7 13 -25z m-42 -72 c-10 -26 -29 1
-21 28 7 20 8 21 17 5 5 -9 7 -24 4 -33z m-1687 -50 c-2 -111 -14 -131 -23
-36 -5 45 -5 87 -1 92 16 27 25 6 24 -56z m1649 0 c-4 -39 -28 -42 -28 -4 0
21 5 31 16 31 11 0 14 -8 12 -27z m-48 -43 c0 -11 -4 -20 -10 -20 -5 0 -10 9
-10 20 0 11 5 20 10 20 6 0 10 -9 10 -20z m-30 -54 c0 -15 -14 -35 -21 -30
-15 9 -10 34 6 34 8 0 15 -2 15 -4z m-41 -66 c-12 -34 -29 -31 -29 6 0 17 5
24 19 24 18 0 19 -3 10 -30z m-1529 -91 c0 -52 -3 -70 -12 -66 -7 2 -13 13
-12 25 3 109 5 123 14 117 6 -3 10 -38 10 -76z m1489 69 c0 -7 -4 -22 -9 -33
-7 -18 -8 -19 -15 -2 -4 9 -5 24 -1 32 7 18 26 20 25 3z m-49 -53 c0 -8 -4
-15 -10 -15 -5 0 -7 7 -4 15 4 8 8 15 10 15 2 0 4 -7 4 -15z m-40 -65 c0 -5
-2 -10 -4 -10 -3 0 -8 5 -11 10 -3 6 -1 10 4 10 6 0 11 -4 11 -10z m-32 -42
c-6 -18 -28 -21 -28 -4 0 9 7 16 16 16 9 0 14 -5 12 -12z m-1328 -48 c0 -31
-16 -41 -26 -15 -8 19 2 45 16 45 5 0 10 -13 10 -30z m1290 16 c0 -15 -14 -35
-21 -30 -15 9 -10 34 6 34 8 0 15 -2 15 -4z m-1250 -97 c0 -24 -23 -21 -28 4
-2 10 3 17 12 17 10 0 16 -9 16 -21z m40 -59 c0 -5 -4 -10 -10 -10 -5 0 -10 5
-10 10 0 6 5 10 10 10 6 0 10 -4 10 -10z m40 -56 c0 -17 -22 -14 -28 4 -2 7 3
12 12 12 9 0 16 -7 16 -16z m968 4 c-6 -18 -28 -21 -28 -4 0 9 7 16 16 16 9 0
14 -5 12 -12z m-928 -38 c0 -5 -4 -10 -10 -10 -5 0 -10 5 -10 10 0 6 5 10 10
10 6 0 10 -4 10 -10z m880 0 c0 -5 -7 -10 -16 -10 -8 0 -12 5 -9 10 3 6 10 10
16 10 5 0 9 -4 9 -10z m-810 -40 c0 -5 -9 -10 -20 -10 -11 0 -20 5 -20 10 0 6
9 10 20 10 11 0 20 -4 20 -10z m750 -5 c-13 -16 -40 -20 -40 -7 0 14 12 22 33
22 16 0 17 -3 7 -15z m-682 -37 c-3 -7 -13 -13 -23 -13 -10 0 -20 6 -22 13 -3
7 5 12 22 12 17 0 25 -5 23 -12z m632 2 c0 -6 -7 -13 -15 -16 -20 -8 -48 3
-40 16 8 13 55 13 55 0z m-516 -39 c6 -9 -62 -23 -76 -15 -4 3 -8 9 -8 15 0
11 77 12 84 0z m433 -3 c-3 -11 -25 -14 -75 -9 -7 0 -10 6 -7 11 9 15 88 13
82 -2z m-137 -38 c0 -5 -8 -10 -17 -11 -10 0 -34 -2 -53 -3 -54 -5 -170 6
-170 15 0 5 54 9 120 9 73 0 120 -4 120 -10z"/>
<path d="M7043 10945 c-8 -22 6 -33 17 -15 13 20 12 30 0 30 -6 0 -13 -7 -17
-15z"/>
<path d="M9301 10266 c-8 -9 -11 -19 -7 -23 9 -9 29 13 24 27 -2 8 -8 7 -17
-4z"/>
<path d="M9256 10224 c-4 -9 -4 -19 -2 -21 8 -8 26 8 26 23 0 19 -16 18 -24
-2z"/>
<path d="M24687 3953 c-12 -11 -8 -981 3 -988 7 -4 10 163 10 494 0 276 -1
501 -3 501 -2 0 -7 -3 -10 -7z"/>
<path d="M24730 3951 c0 -5 7 -14 16 -19 14 -8 14 -10 0 -21 -14 -12 -16 -66
-16 -451 0 -385 2 -439 16 -451 14 -11 14 -13 0 -21 -25 -14 -18 -30 12 -26
l27 3 0 495 0 495 -27 3 c-16 2 -28 -1 -28 -7z"/>
<path d="M23330 3934 c-19 -7 -49 -13 -66 -13 -48 -1 -67 -21 -55 -54 9 -23
15 -27 32 -22 16 5 20 3 17 -6 -3 -9 -17 -13 -41 -11 -28 3 -38 -1 -47 -17 -6
-12 -17 -21 -25 -21 -12 0 -15 -17 -16 -82 -1 -46 -1 -100 0 -120 2 -27 -1
-38 -11 -38 -12 0 -14 22 -12 118 2 140 1 133 16 130 6 -2 14 8 18 22 3 14 11
25 17 25 17 0 38 23 30 32 -4 4 -29 -14 -55 -40 -43 -42 -49 -54 -59 -114 -15
-85 0 -163 39 -213 28 -36 48 -37 28 -1 -9 18 -8 21 11 21 19 0 21 -4 16 -40
-5 -39 -4 -40 33 -50 21 -6 43 -17 50 -25 9 -10 32 -15 74 -15 40 0 69 -6 84
-16 13 -9 50 -18 83 -21 56 -5 62 -9 104 -55 39 -43 45 -55 44 -91 0 -49 -52
-130 -86 -135 -12 -2 -29 -12 -39 -23 -15 -17 -31 -19 -128 -19 -94 0 -116 3
-141 20 -16 11 -40 20 -52 20 -12 0 -25 5 -29 11 -6 11 -91 52 -109 53 -13 1
-7 -115 7 -131 6 -7 19 -13 29 -13 11 0 36 -9 56 -20 23 -12 57 -20 88 -20 27
-1 61 -7 75 -15 33 -19 99 -19 143 0 20 8 53 15 72 15 20 0 45 4 55 10 24 13
15 49 -17 61 -36 14 -18 31 25 23 46 -8 48 -10 33 -28 -7 -8 -8 -17 -3 -20 14
-8 89 72 117 126 32 61 35 148 5 185 -11 14 -20 33 -20 43 0 21 -66 80 -89 80
-10 0 -26 9 -36 20 -13 14 -31 20 -64 20 -25 1 -64 9 -86 20 -25 12 -62 19
-96 20 -39 0 -61 5 -70 16 -7 8 -25 22 -40 30 -21 10 -32 28 -43 64 -21 69 0
131 54 165 21 13 41 29 45 35 4 6 50 10 113 10 90 0 112 -3 137 -20 17 -11 41
-20 54 -20 14 0 34 -9 46 -20 l21 -20 0 64 c0 59 -2 65 -27 80 -15 9 -47 16
-72 16 -24 0 -61 7 -80 15 -43 18 -109 18 -157 -1z m273 -48 c4 -19 -71 -28
-210 -24 -138 3 -161 7 -149 26 8 13 355 10 359 -2z m37 -45 c0 -6 -5 -13 -10
-16 -14 -9 -52 4 -45 16 8 12 55 12 55 0z m-467 -102 c-4 -13 -9 -17 -15 -11
-11 11 -3 32 12 32 4 0 6 -9 3 -21z m-2 -152 c-13 -13 -23 9 -15 35 l7 23 9
-24 c5 -15 5 -28 -1 -34z m76 -63 c-3 -3 -12 -4 -19 -1 -8 3 -5 6 6 6 11 1 17
-2 13 -5z m107 -30 c25 -10 8 -24 -29 -24 -33 0 -51 11 -38 24 8 8 46 8 67 0z
m-124 -19 c0 -15 -43 -12 -48 3 -3 10 4 13 22 10 15 -2 26 -7 26 -13z m324
-21 c37 -14 9 -21 -108 -27 -127 -6 -166 -2 -166 15 0 7 27 9 73 6 40 -3 82
-1 92 3 25 9 88 11 109 3z m87 -50 c11 -14 10 -15 -11 -12 -13 1 -25 9 -28 16
-5 17 23 15 39 -4z m-88 -9 c-4 -15 -66 -12 -71 3 -3 10 6 13 34 10 22 -2 38
-7 37 -13z m52 -35 c3 -5 1 -10 -4 -10 -6 0 -11 5 -11 10 0 6 2 10 4 10 3 0 8
-4 11 -10z m93 -14 c6 -31 -16 -43 -27 -15 -5 13 -7 28 -4 32 8 13 28 2 31
-17z m-4 -174 c4 -72 3 -93 -7 -90 -15 5 -32 136 -23 174 12 46 23 13 30 -84z
m33 46 c-2 -13 -4 -5 -4 17 -1 22 1 32 4 23 2 -10 2 -28 0 -40z m-610 -144
c-9 -9 -28 6 -21 18 4 6 10 6 17 -1 6 -6 8 -13 4 -17z m553 7 c0 -3 -7 -14
-14 -23 -15 -21 -26 -13 -26 18 0 17 4 21 20 17 11 -3 20 -8 20 -12z m-463
-37 c4 -12 -93 -28 -108 -18 -19 12 -7 23 29 27 54 6 75 3 79 -9z m328 -34
c54 -20 10 -28 -154 -28 -153 0 -222 8 -181 22 8 2 22 7 30 9 28 10 279 7 305
-3z"/>
<path d="M26288 3914 c-13 -12 -9 -89 4 -102 17 -17 83 -15 97 2 16 19 10 98
-7 104 -9 3 -11 -3 -7 -20 3 -13 2 -35 -3 -48 l-9 -25 -7 23 c-9 28 -23 28
-31 1 -10 -29 -23 -12 -27 34 -2 22 -6 35 -10 31z"/>
<path d="M26330 3910 c0 -5 4 -10 9 -10 6 0 13 5 16 10 3 6 -1 10 -9 10 -9 0
-16 -4 -16 -10z"/>
<path d="M23698 3816 c-2 -41 1 -65 7 -63 13 5 19 107 6 120 -6 6 -10 -14 -13
-57z"/>
<path d="M25808 3874 c-5 -4 -8 -48 -8 -97 0 -80 -2 -89 -20 -94 -11 -3 -20
-9 -20 -13 0 -5 9 -12 20 -15 24 -8 26 -21 5 -29 -8 -3 -15 -12 -15 -19 0 -8
7 -20 15 -27 13 -10 15 -52 15 -258 l0 -246 28 -40 c26 -37 27 -38 30 -15 6
37 20 45 31 17 9 -24 15 -26 73 -27 35 -1 73 -2 86 -2 33 -2 72 10 72 21 0 6
-32 10 -73 10 -128 0 -135 18 -136 322 -1 97 3 188 9 202 9 26 11 26 120 26
108 0 110 0 116 24 14 58 9 61 -116 64 -76 2 -117 7 -122 15 -5 7 -7 46 -6 87
2 86 -3 100 -38 100 -27 0 -33 -17 -9 -27 14 -5 14 -7 1 -22 -9 -10 -16 -42
-18 -84 -5 -105 -22 -86 -28 31 -3 57 -8 100 -12 96z m332 -233 c0 -9 -5 -23
-10 -31 -9 -13 -11 -13 -20 1 -8 13 -23 15 -84 11 -78 -5 -126 2 -126 17 0 15
29 19 138 19 87 -1 102 -3 102 -17z m-290 -301 c0 -229 -8 -307 -24 -229 -8
40 -8 452 0 473 18 46 24 -19 24 -244z m45 -243 c0 -26 -20 -25 -23 2 -3 16 1
22 10 19 7 -3 13 -12 13 -21z"/>
<path d="M24075 3682 c-22 -4 -46 -11 -52 -15 -15 -10 -17 -43 -3 -52 19 -12
10 -25 -16 -25 -23 0 -25 3 -20 25 4 14 4 25 0 25 -8 0 -64 -57 -64 -65 0 -4
-9 -18 -20 -32 -11 -14 -20 -35 -20 -47 0 -11 -7 -34 -16 -51 -9 -16 -18 -64
-21 -105 -4 -60 -1 -87 16 -135 11 -32 21 -66 21 -74 0 -17 49 -91 60 -91 5 0
6 8 3 19 -2 10 1 38 7 62 10 36 14 40 20 24 4 -11 5 -38 2 -59 -5 -36 -3 -39
16 -34 28 8 33 -2 23 -40 -11 -37 1 -52 44 -52 16 -1 41 -7 55 -15 14 -8 43
-14 65 -14 22 0 51 6 65 14 14 8 38 14 54 15 42 0 67 26 56 55 -9 25 -4 35 17
35 9 0 11 -8 7 -25 -3 -14 -2 -25 2 -25 10 0 64 65 64 75 0 4 9 18 20 32 11
14 20 37 20 52 0 14 7 56 17 92 15 61 15 70 0 135 -9 38 -17 81 -17 95 0 14
-9 34 -20 44 -11 10 -20 24 -20 31 0 16 -58 84 -71 84 -6 0 -22 9 -37 20 -21
16 -47 21 -122 25 -52 2 -113 1 -135 -3z m231 -33 c13 -21 -21 -29 -126 -29
-105 0 -139 8 -126 29 5 7 50 11 126 11 76 0 121 -4 126 -11z m62 -47 c2 -8
-8 -12 -27 -12 -33 0 -42 16 -13 23 23 6 35 3 40 -11z m-396 -52 c3 -19 2 -44
-2 -55 -6 -17 -9 -13 -19 23 -12 43 -6 92 9 76 4 -5 10 -25 12 -44z m340 3
c28 -28 48 -56 48 -69 0 -12 9 -41 20 -65 12 -27 20 -66 20 -99 0 -33 -8 -72
-20 -99 -11 -24 -20 -53 -20 -64 0 -12 -21 -43 -47 -69 l-47 -48 -91 0 -91 0
-38 39 c-64 66 -86 127 -86 241 0 88 3 103 30 156 16 32 46 73 67 91 36 31 42
32 123 33 l84 0 48 -47z m100 -39 c-4 -45 -8 -52 -23 -37 -14 14 -1 85 15 80
6 -2 10 -20 8 -43z m-474 -140 c5 -140 -4 -257 -21 -251 -10 3 -18 363 -8 396
11 35 25 -33 29 -145z m518 -55 c-1 -121 -4 -173 -13 -176 -23 -8 -31 310 -8
347 17 28 22 -14 21 -171z m-46 -176 c0 -16 3 -38 6 -50 5 -16 2 -23 -9 -23
-15 0 -33 73 -22 91 12 18 25 8 25 -18z m-104 -136 c18 -17 -18 -23 -138 -21
-73 1 -135 2 -137 3 -2 0 1 7 7 14 8 9 45 13 137 12 69 -1 128 -4 131 -8z"/>
<path d="M26780 3682 c-25 -4 -54 -14 -65 -22 -49 -40 -104 -104 -128 -151
-26 -48 -27 -59 -27 -194 0 -156 6 -179 74 -268 29 -38 91 -81 116 -82 8 0 41
-9 73 -20 50 -17 61 -18 90 -6 17 8 51 16 75 18 37 4 52 14 107 70 36 35 65
72 65 81 0 9 9 31 20 47 17 26 20 47 20 160 0 113 -3 134 -20 160 -11 17 -20
39 -20 50 0 23 -95 123 -106 112 -4 -4 -1 -14 6 -23 12 -13 11 -17 -1 -25 -36
-23 -53 -6 -33 34 13 25 14 32 2 43 -15 15 -179 25 -248 16z m226 -33 c13 -21
-21 -29 -132 -29 -81 0 -115 4 -123 13 -6 8 -8 17 -4 20 11 12 251 8 259 -4z
m-267 -66 c-10 -11 -15 -11 -30 3 -15 13 -16 20 -8 31 10 11 15 11 30 -3 15
-13 16 -20 8 -31z m264 -14 c21 -17 37 -36 37 -41 0 -6 9 -21 20 -35 18 -23
20 -41 20 -173 0 -132 -2 -150 -20 -173 -11 -14 -20 -29 -20 -33 0 -4 -14 -23
-32 -41 -32 -33 -32 -33 -131 -33 -96 0 -101 1 -126 28 -73 77 -75 83 -75 247
-1 141 1 152 23 190 14 22 38 52 55 67 29 25 38 27 122 28 87 0 92 -1 127 -31z
m97 8 c0 -31 -24 -64 -34 -48 -9 14 12 71 25 71 5 0 9 -10 9 -23z m-410 -7 c7
-13 7 -26 2 -37 -9 -14 -11 -14 -22 6 -10 20 -8 51 4 51 3 0 10 -9 16 -20z
m-36 -65 c8 -47 0 -89 -13 -80 -10 6 -23 113 -15 126 10 17 22 0 28 -46z m477
-51 c-4 -95 -16 -125 -26 -66 -9 53 4 154 19 149 7 -3 10 -30 7 -83z m-521
-139 c0 -123 -9 -169 -24 -129 -8 21 -8 259 0 267 18 18 24 -16 24 -138z m569
15 c1 -79 -8 -142 -20 -134 -11 6 -12 228 -2 238 12 12 21 -32 22 -104z m-46
-150 c6 -68 -2 -116 -16 -94 -10 18 -19 134 -12 165 10 46 21 19 28 -71z
m-480 -49 c-4 -23 -12 -42 -18 -41 -10 1 -10 84 1 110 12 30 26 -25 17 -69z
m38 -61 c-8 -4 -10 -13 -6 -20 5 -8 12 -7 26 6 17 16 19 16 25 -1 6 -15 -9
-34 -28 -35 -16 0 -38 34 -38 59 0 37 12 47 24 21 7 -15 6 -24 -3 -30z m409 6
c0 -6 -4 -17 -8 -24 -11 -17 -34 32 -25 54 6 15 7 15 20 -2 7 -10 13 -23 13
-28z m-41 -52 c-11 -13 -14 -13 -27 -1 -8 9 -11 23 -8 35 l7 21 20 -20 c17
-17 18 -23 8 -35z m-221 -13 c23 -5 64 -4 90 1 53 10 95 3 89 -15 -6 -18 -277
-19 -277 -1 0 23 30 28 98 15z"/>
<path d="M27658 3684 c-55 -17 19 -30 132 -25 27 1 58 -14 48 -24 -3 -3 -56
-9 -117 -12 -97 -5 -111 -4 -111 10 0 9 5 19 10 22 13 8 13 25 -1 25 -6 0 -21
-8 -34 -19 -22 -17 -23 -20 -9 -40 17 -24 11 -41 -15 -41 -26 0 -32 10 -20 32
16 30 2 34 -20 7 -23 -28 -38 -19 -43 25 -2 16 -9 31 -15 34 -9 2 -11 -5 -7
-27 4 -17 4 -38 0 -47 -5 -14 -10 -13 -32 11 -20 22 -23 30 -12 36 7 5 16 9
21 9 4 0 7 5 7 10 0 13 -57 13 -65 0 -4 -6 -6 -163 -6 -350 0 -187 2 -344 6
-350 7 -12 55 -14 55 -2 0 5 -10 13 -22 19 l-23 10 23 12 c22 12 22 13 22 262
0 196 3 250 13 247 9 -4 13 -71 15 -282 1 -178 6 -275 12 -271 6 4 10 109 10
274 l0 268 38 27 c21 14 45 26 54 26 8 0 27 9 41 20 18 14 40 20 80 20 49 0
58 -4 100 -41 l47 -40 2 -277 3 -277 33 -3 c18 -2 32 1 32 7 0 6 -8 11 -18 11
-23 0 -32 8 -26 25 3 7 14 11 25 8 18 -5 19 2 20 233 0 132 4 248 8 259 15 37
23 -82 19 -318 -2 -148 0 -226 7 -224 6 2 11 109 13 286 2 270 1 284 -18 308
-11 14 -20 33 -20 43 0 9 -18 31 -40 49 -36 29 -48 32 -123 36 -45 2 -90 2
-99 -1z m235 -86 c5 -18 -3 -48 -14 -48 -5 0 -9 6 -9 14 0 8 -3 21 -6 30 -4
10 -1 16 9 16 8 0 17 -6 20 -12z m-380 -26 c3 -4 -3 -18 -14 -31 -16 -19 -20
-21 -25 -7 -3 9 -4 23 0 31 6 16 31 20 39 7z m377 -90 c0 -48 -15 -73 -23 -40
-9 30 -9 73 -1 81 13 13 24 -5 24 -41z"/>
<path d="M28319 3686 c-4 -4 -22 -8 -40 -8 -40 -1 -95 -37 -131 -85 -25 -32
-28 -45 -28 -113 0 -69 3 -80 31 -118 17 -23 39 -42 49 -42 9 0 29 -9 43 -20
16 -13 41 -20 69 -20 23 0 63 -9 87 -20 24 -11 54 -20 66 -20 30 0 50 -20 64
-63 13 -39 2 -78 -31 -114 -20 -21 -30 -23 -130 -23 -95 0 -114 3 -148 22 -37
22 -65 19 -43 -3 12 -12 -3 -59 -18 -59 -15 0 -22 51 -10 77 9 21 9 28 -1 34
-23 15 -37 -11 -33 -59 6 -57 39 -92 89 -92 19 0 53 -7 76 -15 23 -8 57 -15
75 -15 18 0 49 7 68 15 20 8 49 15 65 15 16 0 41 9 55 20 14 11 29 20 34 20 4
1 20 17 36 37 25 33 27 43 27 128 0 90 0 91 -33 123 -18 18 -40 32 -48 32 -9
0 -24 9 -34 20 -14 15 -31 20 -72 20 -34 0 -68 7 -93 20 -22 11 -50 20 -62 20
-31 0 -45 11 -57 43 -19 49 -13 84 20 122 l31 35 105 0 c90 0 109 -3 130 -20
14 -11 34 -20 44 -20 10 0 21 -4 24 -10 3 -5 13 -10 21 -10 10 0 14 12 14 43
0 34 -6 49 -27 70 -26 24 -36 26 -153 33 -69 3 -128 3 -131 0z m241 -36 c29
-18 -5 -25 -143 -28 -138 -3 -177 4 -163 27 9 14 284 15 306 1z m-335 -39 c3
-5 1 -12 -5 -16 -5 -3 -10 -17 -10 -31 0 -13 -5 -24 -11 -24 -6 0 -8 8 -4 19
3 11 1 22 -4 25 -6 4 -8 13 -4 21 6 17 29 20 38 6z m373 -13 c-3 -7 -11 -13
-18 -13 -7 0 -15 6 -17 13 -3 7 4 12 17 12 13 0 20 -5 18 -12z m-428 -124 c0
-56 -3 -75 -12 -72 -14 5 -23 97 -13 135 11 46 25 11 25 -63z m37 -66 c-3 -8
-6 -5 -6 6 -1 11 2 17 5 13 3 -3 4 -12 1 -19z m93 -36 c32 -4 -8 -21 -55 -24
-38 -2 -50 1 -52 12 -3 12 7 15 44 14 27 0 55 -2 63 -2z m187 -49 c4 -11 -143
-29 -182 -22 -35 7 -27 28 12 32 70 8 166 2 170 -10z m91 -40 c3 -12 -8 -14
-100 -17 -12 -1 -23 4 -25 11 -3 8 12 13 44 16 66 5 76 4 81 -10z m37 -118 c0
-54 -4 -80 -12 -82 -10 -4 -13 17 -13 82 0 65 3 86 13 83 8 -3 12 -29 12 -83z
m-55 50 c0 -8 -2 -15 -4 -15 -2 0 -6 7 -10 15 -3 8 -1 15 4 15 6 0 10 -7 10
-15z m16 -166 c10 -17 -13 -36 -27 -22 -12 12 -4 33 11 33 5 0 12 -5 16 -11z
m-63 -38 c5 -1 7 -7 5 -13 -4 -10 -47 -13 -167 -14 -152 -1 -199 6 -151 24 15
6 267 8 313 3z"/>
<path d="M25007 3673 c-4 -3 -7 -139 -7 -302 l0 -295 28 -40 c27 -39 27 -40
30 -13 4 31 17 35 31 10 8 -16 26 -18 133 -18 103 0 123 -2 123 -15 0 -12 -18
-15 -104 -15 -114 0 -133 -10 -77 -40 31 -17 40 -18 78 -7 24 7 60 17 81 21
21 5 45 15 55 24 9 8 27 18 40 21 12 4 22 12 22 17 0 6 8 9 17 7 12 -2 17 -13
18 -32 0 -16 5 -31 12 -33 12 -4 25 77 21 132 -1 17 -2 155 -2 308 -1 152 -3
277 -6 277 -26 0 -30 -35 -30 -285 l0 -260 -34 -27 c-19 -16 -41 -28 -48 -28
-7 0 -24 -9 -38 -20 -19 -15 -41 -20 -94 -20 -59 0 -72 3 -100 26 -43 36 -47
67 -53 349 -3 146 -8 245 -15 252 -29 35 -33 12 -30 -164 5 -225 -6 -425 -22
-420 -8 3 -11 86 -11 300 0 164 -3 297 -6 297 -3 0 -9 -3 -12 -7z m87 -559 c7
-19 -2 -37 -15 -29 -12 8 -12 45 0 45 5 0 12 -7 15 -16z m393 -31 c5 -13 -25
-26 -38 -17 -6 3 -5 11 2 20 13 16 31 14 36 -3z m-347 -43 c0 -12 -3 -12 -16
2 -9 9 -13 21 -9 28 9 14 25 -5 25 -30z m278 3 c-4 -22 -48 -31 -48 -10 0 19
10 27 32 27 13 0 18 -6 16 -17z"/>
<path d="M25537 3377 c1 -166 2 -328 3 -359 0 -47 3 -56 15 -52 13 5 15 53 15
348 0 330 -3 366 -29 366 -4 0 -5 -136 -4 -303z"/>
<path d="M25727 3673 c-11 -10 -8 -71 3 -78 6 -4 10 6 10 24 0 16 3 36 6 45 6
16 -7 22 -19 9z"/>
<path d="M26285 3667 c-9 -21 0 -697 8 -695 11 4 15 708 4 708 -4 0 -10 -6
-12 -13z"/>
<path d="M26322 3668 c3 -7 16 -12 29 -11 l24 3 -2 -351 c-1 -267 1 -349 10
-346 9 3 12 93 12 358 l0 354 -39 3 c-28 3 -37 0 -34 -10z"/>
<path d="M26330 3319 c0 -244 3 -310 13 -306 6 2 12 9 11 15 -1 7 -2 145 -2
307 -1 189 -6 295 -12 295 -6 0 -10 -110 -10 -311z"/>
<path d="M23960 3028 c0 -18 18 -34 28 -24 3 4 -2 14 -11 23 -16 16 -17 16
-17 1z"/>
<path d="M26135 3000 c0 -23 4 -39 10 -37 5 2 10 19 10 37 0 18 -5 35 -10 37
-6 2 -10 -14 -10 -37z"/>
<path d="M25085 2990 c-4 -6 -2 -17 4 -23 15 -15 25 -2 13 19 -7 12 -11 13
-17 4z"/>
<path d="M25876 2992 c-7 -12 22 -38 31 -28 4 3 0 14 -9 22 -9 10 -18 12 -22
6z"/>
<path d="M25934 2978 c-4 -6 4 -19 17 -29 43 -33 164 -18 157 20 -3 13 -20 16
-86 18 -48 1 -84 -3 -88 -9z"/>
<path d="M26330 2970 c0 -5 4 -10 9 -10 6 0 13 5 16 10 3 6 -1 10 -9 10 -9 0
-16 -4 -16 -10z"/>
</g>
</svg>